<svg width="65" height="64" fill="none" xmlns="http://www.w3.org/2000/svg"><g clip-path="url(#a)"><path fill="#0B0B0C" d="M.334 0h64v64h-64z"/><path d="M0 4h14c13.255 0 24 10.745 24 24v8c0 13.255-10.745 24-24 24H0V4Z" fill="#05BE7B"/><path d="M42.334 18a8 8 0 0 1 8-8h14v44h-14a8 8 0 0 1-8-8V18Z" fill="#FF7376"/><path fill="#FCFCFC" d="M33 22h22v20H33z"/><path d="M14 24h15v2H14v-2ZM14 38h9v2h-9v-2ZM22 31h20v2H22v-2Z" fill="#0B0B0C"/><path d="M27 31v-7h2v7h-2ZM21 40v-9h2v9h-2ZM14 22h6v6h-6v-6ZM12 36h6v6h-6v-6Z" fill="#0B0B0C"/><circle cx="44" cy="32" r="5" fill="#0B0B0C"/></g><defs><clipPath id="a"><path fill="#fff" transform="translate(.334)" d="M0 0h64v64H0z"/></clipPath></defs></svg>