<svg width="64" height="64" viewBox="0 0 64 64" fill="none" xmlns="http://www.w3.org/2000/svg">
<g clip-path="url(#clip0_2403_13168)">
<rect width="64" height="64" fill="#0B0B0C"/>
<path d="M-0.333984 9C12.3686 9 22.666 19.2975 22.666 32C22.666 44.7025 12.3686 55 -0.333984 55V9Z" fill="#730ADE"/>
<path d="M26.666 10C26.666 5.58172 30.2477 2 34.666 2H63.666V62H34.666C30.2477 62 26.666 58.4183 26.666 54V10Z" fill="#05BE7B"/>
<path fill-rule="evenodd" clip-rule="evenodd" d="M8.19141 31.9996C10.7593 25.5425 16.8706 21 24.001 21C31.1316 21 37.2431 25.5428 39.8108 32.0001C37.243 38.4572 31.1316 42.9997 24.0012 42.9997C16.8706 42.9997 10.7591 38.4569 8.19141 31.9996Z" fill="#FCFCFC"/>
<path d="M30 32C30 35.3137 27.3137 38 24 38C20.6863 38 18 35.3137 18 32C18 28.6863 20.6863 26 24 26C27.3137 26 30 28.6863 30 32Z" fill="#0B0B0C"/>
<rect x="24" y="31" width="24" height="2" fill="#0B0B0C"/>
<path d="M53 32L45.5 36.3301L45.5 27.6699L53 32Z" fill="#0B0B0C"/>
</g>
<defs>
<clipPath id="clip0_2403_13168">
<rect width="64" height="64" fill="white"/>
</clipPath>
</defs>
</svg>
