<svg width="64" height="64" fill="none" xmlns="http://www.w3.org/2000/svg"><g clip-path="url(#a)"><path fill="#0B0B0C" d="M0 0h64v64H0z"/><path d="M-.334 9c12.703 0 23 10.297 23 23s-10.297 23-23 23V9Z" fill="#730ADE"/><path d="M26.666 10a8 8 0 0 1 8-8h29v60h-29a8 8 0 0 1-8-8V10Z" fill="#05BE7B"/><path fill-rule="evenodd" clip-rule="evenodd" d="M8.191 32c2.568-6.457 8.68-11 15.81-11 7.13 0 13.242 4.543 15.81 11-2.568 6.457-8.68 11-15.81 11-7.13 0-13.242-4.543-15.81-11Z" fill="#FCFCFC"/><path d="M30 32a6 6 0 1 1-12 0 6 6 0 0 1 12 0Z" fill="#0B0B0C"/><path fill="#0B0B0C" d="M24 31h24v2H24z"/><path d="m53 32-7.5 4.33v-8.66L53 32Z" fill="#0B0B0C"/></g><defs><clipPath id="a"><path fill="#fff" d="M0 0h64v64H0z"/></clipPath></defs></svg>