<svg width="400" height="400" viewBox="0 0 400 400" fill="none" xmlns="http://www.w3.org/2000/svg">
<rect width="400" height="400" fill="#0B0B0C"/>
<path d="M88.4271 70.9145C88.4271 59.311 97.6649 51 109.133 51C121.01 51 130.446 59.3375 130.446 70.9145C130.446 82.4914 120.971 90.8289 109.133 90.8289C97.599 90.8688 88.4271 82.5312 88.4271 70.9145ZM154.411 250.277V276.246H73V250.277H99.9084V133.446H73V107.305H130.09V260.5H130.446C131.144 257.589 132.795 254.998 135.134 253.144C137.472 251.29 140.362 250.28 143.339 250.277H154.411ZM296.304 107.026V134.296C283.477 115.549 263.312 103.959 238.475 103.959C194.213 103.959 164.982 140.243 164.982 188.277C164.982 236.643 194.213 272.927 238.475 272.927C263.338 272.927 283.477 261.337 296.304 242.524V268.214C295.75 298.749 278.528 323.297 247.476 323.297C224.302 323.297 208.848 309.822 202.158 290.438L176.292 303.197C188.169 330.825 214.035 349 248.228 349C295.064 349 326.327 314.482 327 268.214V106.973L296.304 107.026ZM245.575 246.427C212.874 246.427 195.084 220.339 195.084 188.211C195.084 156.414 212.874 130.326 245.575 130.326C277.987 130.326 295.723 156.414 295.723 188.211C295.816 220.353 278.04 246.441 245.628 246.441L245.575 246.427Z" fill="#FCFCFC"/>
</svg>
