<svg width="160" height="68" viewBox="0 0 160 68" fill="none" xmlns="http://www.w3.org/2000/svg"><g clip-path="url(#a)" fill="#FCFCFC"><path d="M82.361 23.593c1.63.189 3.19.562 4.522 1.08l2.337-4.102c-2.655-1.379-5.893-2.163-9.174-2.163-3.216 0-6.508.79-9.109 2.136l2.31 4.114a18.897 18.897 0 0 1 4.403-1.055v14.851h4.722V23.593h-.01Zm-31.849 7.443c.923 1.67 2.682 2.795 4.695 2.795a5.51 5.51 0 0 0 3.48-1.281l3.6 3.622c-1.894 1.708-4.43 2.725-6.977 2.725-5.736 0-10.388-4.677-10.388-10.407s4.657-10.418 10.393-10.418c2.601 0 5.213 1.017 7.107 2.806l-3.67 3.525a5.483 5.483 0 0 0-3.545-1.308 5.344 5.344 0 0 0-4.894 3.222l6.907-.011v4.73h-6.708Zm-18.244-5.952v13.401h4.721V23.857l-.064-.109c-.238-2.924-2.186-5.211-4.576-5.211-1.614 0-3.135 1.07-3.95 2.779-.826-1.698-2.348-2.78-3.961-2.78-2.385 0-4.36 2.288-4.603 5.32l-.011 14.63h4.722l-.027-13.402c0-.681.388-1.2.825-1.163.427.038.826.644.842 1.298v13.266h4.404l.01-13.266c.011-.654.4-1.254.842-1.298.426-.037.826.482.826 1.163Zm99.389-7.008c5.639 0 10.242 4.676 10.242 10.423 0 5.73-4.603 10.407-10.242 10.407-5.656 0-10.259-4.676-10.259-10.407.006-5.747 4.603-10.423 10.259-10.423Zm0 5.022a5.392 5.392 0 0 0-5.386 5.396 5.38 5.38 0 0 0 5.386 5.373 5.369 5.369 0 0 0 5.364-5.373c0-2.979-2.402-5.396-5.364-5.396ZM98.75 18.564h8.084c3.745.081 6.723 2.995 6.723 6.455 0 2.698-1.829 5.093-4.452 6.039l5.44 7.428h-5.882l-4.911-6.682v6.682H98.75V18.565Zm7.922 4.942h-2.92l-.01 3.86h2.935c1.042-.011 1.921-.882 1.921-1.936-.005-1.054-.89-1.924-1.926-1.924Z"/><path d="M28.34 13.428c8.19 0 14.872 6.692 14.872 14.899 0 8.206-6.681 14.9-14.873 14.9-8.186 0-14.866-6.694-14.866-14.9 0-8.201 6.68-14.9 14.866-14.9Zm0 1.06c-7.604 0-13.804 6.227-13.804 13.839 0 7.617 6.2 13.84 13.803 13.84 7.614 0 13.815-6.228 13.815-13.84.005-7.617-6.195-13.84-13.815-13.84Z"/><path d="M54.376 13.428c8.186 0 14.866 6.698 14.866 14.899 0 8.206-6.68 14.9-14.872 14.9-8.191 0-14.872-6.694-14.872-14.9.005-8.201 6.686-14.9 14.878-14.9Zm0 1.06c-7.604 0-13.804 6.227-13.804 13.839 0 7.617 6.2 13.84 13.803 13.84 7.615 0 13.815-6.228 13.815-13.84 0-7.617-6.2-13.84-13.814-13.84Z"/><path d="M80.16 13.428c8.191 0 14.872 6.692 14.872 14.899 0 8.206-6.681 14.9-14.873 14.9-8.191 0-14.872-6.694-14.872-14.9.006-8.201 6.686-14.9 14.872-14.9Zm0 1.06c-7.604 0-13.804 6.227-13.804 13.839 0 7.617 6.2 13.84 13.803 13.84 7.615 0 13.815-6.228 13.815-13.84.005-7.617-6.195-13.84-13.815-13.84Z"/><path d="M105.868 13.428c8.192 0 14.872 6.692 14.872 14.899 0 8.206-6.68 14.9-14.872 14.9-8.191 0-14.872-6.694-14.872-14.9.005-8.201 6.686-14.9 14.872-14.9Zm0 1.06c-7.603 0-13.803 6.227-13.803 13.839 0 7.617 6.2 13.84 13.803 13.84 7.614 0 13.815-6.228 13.815-13.84.005-7.617-6.195-13.84-13.815-13.84Z"/><path d="M131.737 13.428c8.192 0 14.872 6.692 14.872 14.899 0 8.206-6.68 14.9-14.872 14.9-8.191 0-14.872-6.694-14.872-14.9.006-8.201 6.686-14.9 14.872-14.9Zm0 1.06c-7.603 0-13.803 6.227-13.803 13.839 0 7.617 6.2 13.84 13.803 13.84 7.614 0 13.815-6.228 13.815-13.84.005-7.617-6.195-13.84-13.815-13.84ZM28.054 51.84c0 .8-.394 1.432-1.182 1.908-.74.449-1.662.67-2.758.67-1.252 0-2.255-.302-3.005-.913s-1.123-1.395-1.123-2.363c0-.984.378-1.773 1.128-2.362.756-.59 1.77-.887 3.054-.887 1.096 0 1.98.211 2.645.638.663.427 1.068 1.049 1.208 1.865h-2.504c-.08-.319-.205-.546-.377-.686-.205-.173-.518-.265-.934-.265-.572 0-.993.184-1.268.551-.221.303-.334.687-.334 1.157 0 .465.113.849.334 1.146.28.379.707.568 1.268.568.394 0 .707-.092.934-.281.232-.19.372-.438.431-.746h2.483Zm11.143 2.405h-2.59l-.302-.816h-2.59l-.314.816h-2.547l2.85-6.19h2.638l2.855 6.19Zm-3.356-2.113-.826-2.147-.82 2.147h1.646Zm13.469.178c0 .703-.389 1.243-1.166 1.622-.67.324-1.49.48-2.471.48-1.015 0-1.819-.156-2.402-.464-.647-.34-1.057-.881-1.236-1.622h2.558a.71.71 0 0 0 .405.465c.205.097.464.146.783.146.35 0 .599-.038.755-.119.156-.081.232-.19.232-.324 0-.222-.394-.411-1.176-.568-1.134-.232-1.867-.416-2.202-.551-.793-.33-1.193-.811-1.193-1.444 0-.675.362-1.194 1.09-1.562.632-.319 1.414-.476 2.359-.476.928 0 1.678.146 2.255.444.653.335 1.036.832 1.155 1.502h-2.471a.517.517 0 0 0-.357-.427 2.065 2.065 0 0 0-.755-.124c-.216 0-.373.022-.48.06-.178.07-.265.189-.265.367 0 .146.103.26.302.34.124.05.313.093.556.13l1.549.314c.648.146 1.155.357 1.522.627.437.314.653.708.653 1.184Zm11.289 1.935h-2.612V51.85h-2.401v2.395h-2.602v-6.19h2.602v2.103h2.4v-2.103H60.6v6.19Zm19.615 0h-2.779l-.68-.535c-.847.47-1.808.703-2.892.703-.777 0-1.414-.162-1.905-.481-.518-.335-.777-.795-.777-1.384 0-.779.582-1.406 1.748-1.865-.491-.384-.734-.784-.734-1.206 0-.519.28-.924.847-1.216.492-.254 1.096-.384 1.814-.384.771 0 1.424.14 1.958.416.61.32.912.763.912 1.325 0 .66-.448 1.19-1.338 1.578l.675.563c.215-.13.41-.314.577-.552h2.126a5.835 5.835 0 0 1-1.42 1.573l1.868 1.465Zm-4.398-4.703c0-.162-.086-.297-.248-.405a1.05 1.05 0 0 0-.583-.163.975.975 0 0 0-.529.136c-.145.091-.216.21-.216.362 0 .27.232.519.691.746.588-.179.885-.406.885-.676Zm-.367 3.141-1.165-.935c-.556.216-.837.476-.837.789 0 .151.081.276.243.368.162.091.35.135.556.135.442 0 .842-.12 1.203-.357Zm22.54-.843c0 .8-.394 1.432-1.176 1.908-.74.449-1.662.67-2.758.67-1.252 0-2.255-.302-3.005-.913s-1.123-1.395-1.123-2.363c0-.984.378-1.773 1.128-2.362.756-.59 1.77-.887 3.054-.887 1.096 0 1.98.211 2.645.638.663.427 1.068 1.049 1.208 1.865h-2.504c-.08-.319-.205-.546-.377-.686-.205-.173-.518-.265-.934-.265-.572 0-.993.184-1.268.551-.221.303-.335.687-.335 1.157 0 .465.114.849.335 1.146.28.379.707.568 1.268.568.394 0 .707-.092.934-.281.232-.19.372-.438.431-.746h2.477Zm11.144 2.405h-2.591l-.302-.816h-2.59l-.313.816h-2.547l2.849-6.19h2.639l2.855 6.19Zm-3.357-2.113-.825-2.147-.826 2.147h1.651Zm14.144 2.113h-2.612a2.353 2.353 0 0 1-.119-.34 1.204 1.204 0 0 1-.038-.308v-.622c0-.308-.08-.525-.248-.66-.167-.135-.453-.2-.863-.2h-1.112v2.125h-2.547v-6.185h3.869c.869 0 1.538.065 2.013.195.734.2 1.171.562 1.311 1.087.017.07.027.156.038.26.011.102.016.194.016.264 0 .119-.005.227-.021.324a.527.527 0 0 0-.033.12c-.059.243-.205.459-.442.643a2.86 2.86 0 0 1-.815.421c.453.07.793.227 1.025.481.205.233.313.525.313.882l.022.875c.016.152.032.25.048.292.017.044.081.076.195.108v.238Zm-2.704-4.114c0-.335-.226-.53-.68-.573h-1.613v1.163h1.203c.313 0 .556-.033.734-.103.243-.092.356-.254.356-.487Zm13.793 4.114h-2.612a2.34 2.34 0 0 1-.118-.34 1.204 1.204 0 0 1-.038-.308v-.622c0-.308-.081-.525-.248-.66-.168-.135-.454-.2-.864-.2h-1.111v2.125h-2.548v-6.185h3.87c.868 0 1.538.065 2.012.195.734.2 1.171.562 1.312 1.087.016.07.027.156.037.26.011.102.017.194.017.264 0 .119-.006.227-.022.324a.476.476 0 0 0-.032.12 1.16 1.16 0 0 1-.443.643 2.86 2.86 0 0 1-.815.421c.454.07.794.227 1.026.481.205.233.313.525.313.882l.021.875c.016.152.033.25.049.292.016.044.081.076.194.108v.238Zm-2.703-4.114c0-.335-.227-.53-.68-.573h-1.614v1.163h1.203c.313 0 .556-.033.734-.103.238-.092.357-.254.357-.487Zm13.873-2.076-2.914 3.898v2.292h-2.601v-2.292l-2.984-3.898h2.882l1.403 2.103 1.403-2.103h2.811Z"/></g><defs><clipPath id="a"><path fill="#fff" d="M13.121 13.045h134v42h-134z"/></clipPath></defs></svg>