<svg width="160" height="68" viewBox="0 0 160 68" fill="none" xmlns="http://www.w3.org/2000/svg"><path d="M42.634 34.354c.027-9.533-7.567-17.282-16.96-17.308-9.395-.027-17.031 7.68-17.058 17.212-.026 9.533 7.567 17.282 16.961 17.308 9.394.027 17.03-7.68 17.057-17.212Zm38.334 9.887v-1.847c-1.16 1.392-3.322 2.328-5.116 2.328-4.404 0-7.12-3.773-7.12-8 0-4.229 3.004-7.841 7.33-7.841a6.413 6.413 0 0 1 4.325 1.776 4 4 0 0 1 .529.61h.052V29.39h3.217v14.85h-3.217ZM76.59 32.146c-2.603 0-4.35 2.194-4.35 4.736 0 2.489 1.845 4.575 4.35 4.575 2.603 0 4.27-2.14 4.27-4.673s-1.685-4.638-4.27-4.638Zm9.94-7.707v3.265h3.508V24.44H86.53Zm0 4.952v14.85h3.508V29.39H86.53Zm15.311 14.85v-7.333c0-2.06-.342-4.762-2.953-4.762a3 3 0 0 0-1.355.365 3.049 3.049 0 0 0-1.048.945c-.632.937-.632 2.623-.632 3.72v7.065H92.35V29.39h3.243v1.284c1.161-1.152 2.32-1.794 4.005-1.794a5.911 5.911 0 0 1 2.417.557 5.979 5.979 0 0 1 1.987 1.503c1.135 1.392 1.346 3.32 1.346 5.057v8.243h-3.506Zm24.3-8.241v8.243l3.51.01v-8.67c0-1.472-.238-3.157-1.107-4.388-1.135-1.579-2.953-2.302-4.825-2.302-1.952 0-3.56.642-4.721 2.328a4.944 4.944 0 0 0-1.809-1.724 4.852 4.852 0 0 0-2.41-.604c-1.421 0-3.023.455-3.824 1.766h-.052v-1.266h-3.217v14.831h3.499v-7.411c0-1.998.167-4.673 2.803-4.673 2.215 0 2.928 1.907 2.928 3.86v8.234h3.503v-7.68c0-.936.028-2.194.529-3.023a2.873 2.873 0 0 1 1.033-1.016 2.822 2.822 0 0 1 1.391-.375c2.269 0 2.769 1.96 2.769 3.86Zm20.285 2.408h-11.365c.088.384.249.748.475 1.07a4.264 4.264 0 0 0 1.531 1.45c.622.346 1.32.528 2.029.53 1.423 0 2.663-.59 3.375-1.9h3.688c-.951 3.023-3.956 5.164-7.067 5.164-4.377 0-7.727-3.454-7.727-7.867s3.27-7.974 7.701-7.974c4.27 0 7.568 3.425 7.568 7.733a8.33 8.33 0 0 1-.208 1.794Zm-7.33-6.262c-2.137 0-3.638 1.284-4.141 3.399h8.097c-.344-2.142-1.82-3.4-3.956-3.4ZM59.492 29.39h.006v14.85h-3.507V32.548h-2.8v-3.157h2.8v-4.952h3.501v4.952Zm5.524 1.268h-.052V29.35h-3.23v14.907h3.52v-8.38c0-2.177.901-3.491 3.204-3.573V28.83c-1.748 0-2.463.384-3.442 1.829Zm82.86-3.123v-2.518h.591v-.579h-1.82v.58h.582v2.517h.647Zm3.696-2.134v2.134h.659v-3.097h-.859l-.809 2.245-.819-2.245h-.865v3.097h.645v-2.134h.014l.749 2.134h.536l.749-2.134Zm-126.824-.988h-3.504v4.945H18.45v3.155h2.795v11.683h3.504V24.414Zm5.264 0h-3.504v19.783h3.504V32.514h2.797V29.36h-2.797v-4.945Z" fill="#FCFCFC"/></svg>