<svg width="160" height="68" viewBox="0 0 160 68" fill="none" xmlns="http://www.w3.org/2000/svg"><path d="M56.162 34.86c.568-3.306 2.3-4.983 5.148-4.983 2.971 0 4.803 1.794 5.159 5.051l.068.617H56.044l.118-.685Zm11.524 8.474a9.945 9.945 0 0 1-1 .796c-1.294.899-2.623 1.317-4.179 1.317-.173 0-.351-.006-.536-.016-1.792 0-3.22-.558-4.246-1.66-1.723-1.848-1.724-4.533-1.723-4.647l16.413-.001v-.797c0-6.276-2.93-12.982-11.15-12.982-6.355 0-11.148 5.316-11.148 12.366v.095c0 7.34 4.784 12.272 11.905 12.272 3.643 0 6.63-1.286 8.876-3.823l.18-.203-3.236-2.858-.156.14Z" fill="#FCFCFC"/><path d="m84.947 38.829 7.149-11.015-2.557-.002-2.707.003c-1.022.002-1.421.69-1.462.766l-3.733 6.057-4.183-6.823h-6.101l7.105 10.967-7.202 11.16-.084.13h5.378c.134 0 .795-.045 1.276-.733l.064-.09c.008-.014.09-.142.097-.156l.09-.146.122-.197.156-.248.556-.9.026-.041 2.824-4.57 4.383 7.04.023.04h6.064L84.947 38.83ZM44.606 19.156c-.876 0-1.92.323-1.92 1.86v29.057h4.329c1.541 0 1.864-1.042 1.864-1.917V19.157h-4.273Zm-12.884.004h-7.756l-.001.001h-.505c-.837 0-1.835.322-1.835 1.86v29.052h4.137c1.473 0 1.782-1.042 1.782-1.916v-6.71l-.002-.078v-2.743c0-.846.383-1.787 1.785-1.787h3.508l.045.002h.05c.025 0 .047.004.07.005.045.003.09.005.132.01l.101.014.12.02c.032.007.063.015.094.024.035.009.07.018.104.029.031.01.06.021.09.033l.088.035c.03.014.06.03.089.045l.069.038c.032.019.06.04.09.06.016.013.034.024.05.036.033.026.062.053.092.081l.03.028a1.1 1.1 0 0 1 .097.108l.01.01c.27.34.366.785.366 1.207v.603l.001-.001v.269l4.659-5.216c.461-.565.462-.825.075-1.192l-4.865-4.479v.796c0 1.464-.901 1.863-1.712 1.863h-1.066c-.069 0-.134.005-.197.01a1.326 1.326 0 0 0-.094.007l-.102.014a2.082 2.082 0 0 0-.317.073c-.031.01-.06.021-.09.033a1.517 1.517 0 0 0-.177.08l-.07.038-.09.06c-.016.013-.033.024-.049.036a1.617 1.617 0 0 0-.092.081c-.01.01-.021.018-.03.028-.035.034-.067.07-.097.107l-.01.011c-.27.34-.366.785-.366 1.207v.603l-.002-.001v.269l-4.658-5.216c-.461-.565-.462-.825-.076-1.192l4.866-4.479v.796c0 1.464.848 1.874 1.659 1.874l6.346.002h.357l.03-.002c.085-.003.17-.008.254-.018l.057-.004v-.004c.726-.102 1.44-.532 1.44-1.832v-4.692h-8.484v.005Zm76.614 24.782v6.13h4.329c1.541 0 1.865-1.035 1.865-1.904V27.814h-6.194v16.129ZM96.919 19.753c-1.193 1.2-1.773 3.053-1.773 5.665v1.763l-2.912 4.55h2.912v18.344h3.8l.576-.001c1.557 0 1.883-1.063 1.883-1.955V31.731h3.765c1.558 0 1.884-1.063 1.884-1.955l-.001-1.947v-.648h-5.648v-1.67c0-2.245 1.328-3.64 3.641-3.64.713 0 1.35.053 2.003.166l.05.008v-3.708l-.033-.007c-1.205-.275-2.67-.408-4.48-.408-2.662 0-4.41.564-5.667 1.831Zm33.917 8.06c-2.046 0-3.988.956-5.562 2.17l-1.428 1.1-.686-2.137v.014c-.299-.762-.84-1.118-1.693-1.118h-4.455v22.23h4.352c1.492 0 1.847-.96 1.871-1.806v-2.257l.002-8.046c0-3.306 1.965-5.36 5.007-5.36 2.928 0 4.747 2.053 4.747 5.36v12.11h6.303l.015-13.797c0-4.599-3.801-8.464-8.473-8.464Zm-20.58-7.418c-.876 0-1.92.302-1.92 1.742v1.968h6.194v-3.71h-4.274Z" fill="#FCFCFC"/></svg>