<svg width="160" height="68" viewBox="0 0 160 68" fill="none" xmlns="http://www.w3.org/2000/svg"><g clip-path="url(#a)" fill="#FCFCFC"><path d="M140.185 24.428v6.788h-5.91v-6.788h-5.91v9.615l2.956 2.829h8.864v6.787h5.91V24.43l-5.91-.001Zm-30.732 0v5.656h11.819v1.132h-8.863l-2.955 2.828v9.615h17.729v-5.656h-11.819v-1.131h8.861l2.954-2.829v-6.787l-2.954-2.828h-14.772Zm-94.557 2.828v6.788l2.956 2.829h8.864v1.13H14.897v5.656h14.775l2.954-2.828v-6.787l-2.954-2.828h-8.865v-1.132h11.82v-5.656H17.851l-2.956 2.828Zm40.777-2.828-2.954 2.828V40.83l2.954 2.828H67.49l2.955-2.828V27.256l-2.956-2.828H55.674Zm8.865 13.574h-5.91v-7.918h5.91v7.918Zm26.002-7.918h5.91v13.574h5.909V30.084h5.91v-5.656h-17.73v5.656Zm-18.91-5.656v19.23h5.91v-6.787h3.463l2.448 2.343v4.444h5.909v-6.787l-2.363-2.263 2.363-2.262v-5.09l-2.954-2.828H71.63Zm11.23 6.787h-5.32v-1.131h5.32v1.13Zm-49.053-6.787v19.23h5.91v-6.786h8.864l2.955-2.829v-6.787l-2.955-2.828H33.807Zm11.82 6.787h-5.91v-1.131h5.91v1.13Z"/></g><defs><clipPath id="a"><path fill="#fff" d="M14.494 24.045h132v20h-132z"/></clipPath></defs></svg>