<svg width="160" height="68" viewBox="0 0 160 68" fill="none" xmlns="http://www.w3.org/2000/svg">
<g clip-path="url(#clip0_2403_13123)">
<path d="M140.185 24.4277V31.2156H134.275V24.4277H128.365V34.0431L131.321 36.8718H140.185V43.6593H146.095V24.4285L140.185 24.4277Z" fill="#FCFCFC"/>
<path d="M109.453 24.4277V30.0839H121.272V31.2156H112.409L109.454 34.0439V43.6593H127.183V38.0031H115.364V36.8718H124.225L127.179 34.0431V27.2556L124.225 24.4277H109.453Z" fill="#FCFCFC"/>
<path d="M14.8965 27.2564V34.0439L17.8519 36.8725H26.7165V38.0031H14.8973V43.6593H29.6719L32.6264 40.831V34.0439L29.6719 31.2156H20.8073V30.0839H32.6264V24.4277H17.8519L14.8965 27.2564Z" fill="#FCFCFC"/>
<path d="M55.6734 24.4277L52.7188 27.2556V40.8302L55.6734 43.6585H67.4885L70.4439 40.8302V27.2564L67.4885 24.4277H55.6734ZM64.5379 38.0023H58.6279V30.0839H64.5371L64.5379 38.0023Z" fill="#FCFCFC"/>
<path d="M90.5391 30.0839H96.4491V43.6585H102.359V30.0839H108.269V24.4277H90.5398L90.5391 30.0839Z" fill="#FCFCFC"/>
<path d="M71.6309 24.4277V43.6585H77.5409V36.871H81.0026L83.4509 39.214V43.6585H89.36V36.871L86.997 34.6084L89.36 32.3462V27.2556L86.4055 24.4277H71.6309ZM82.8601 31.2148H77.5409V30.0839H82.8601V31.2148Z" fill="#FCFCFC"/>
<path d="M33.8066 24.4277V43.6585H39.7166V36.8718H48.5813L51.5358 34.0431V27.2556L48.5813 24.4277H33.8066ZM45.6266 31.2148H39.7166V30.0839H45.6266V31.2148Z" fill="#FCFCFC"/>
</g>
<defs>
<clipPath id="clip0_2403_13123">
<rect width="132" height="20" fill="white" transform="translate(14.4941 24.0449)"/>
</clipPath>
</defs>
</svg>
