<svg width="160" height="68" viewBox="0 0 160 68" fill="none" xmlns="http://www.w3.org/2000/svg"><path d="M39.98 30.173a.153.153 0 0 0-.058-.064.16.16 0 0 0-.225.064l-3.573 7.855a.167.167 0 0 0 .073.226.17.17 0 0 0 .086.02h7.113a.178.178 0 0 0 .15-.079.167.167 0 0 0 .009-.167l-3.576-7.855Zm49.84.001a.152.152 0 0 0-.14-.088.156.156 0 0 0-.14.088l-3.576 7.855a.167.167 0 0 0 .073.226.17.17 0 0 0 .086.02h7.113a.178.178 0 0 0 .15-.079.167.167 0 0 0 .009-.167l-3.576-7.855Zm-17.567-.001a.158.158 0 0 0-.282 0l-3.576 7.855a.166.166 0 0 0 .009.168.172.172 0 0 0 .15.079h7.114a.176.176 0 0 0 .15-.08.167.167 0 0 0 .008-.167l-3.573-7.855Z" fill="#FCFCFC"/><path d="M134.421 21.527a.341.341 0 0 0-.105-.221.353.353 0 0 0-.228-.097l-32.154-1.686a.397.397 0 0 1-.38-.367.395.395 0 0 1 .034-.185l5.141-11.36a.384.384 0 0 0-.053-.405.404.404 0 0 0-.391-.142l-79.58 14.495a.353.353 0 0 0-.199.11.338.338 0 0 0-.087.205 179.02 179.02 0 0 0-.423 12.127c0 4.195.149 8.353.446 12.474a.344.344 0 0 0 .105.221.359.359 0 0 0 .228.1l32.152 1.683a.409.409 0 0 1 .321.187.388.388 0 0 1 .026.365l-5.14 11.36a.386.386 0 0 0 .052.403.403.403 0 0 0 .389.144l79.584-14.495a.35.35 0 0 0 .197-.11.331.331 0 0 0 .087-.206c.278-4.007.419-8.05.424-12.126 0-4.195-.149-8.353-.446-12.474ZM46.656 40.47h-13.63a.409.409 0 0 1-.34-.179.386.386 0 0 1-.028-.376L38.18 27.79a.353.353 0 0 1 .32-.205h2.676a.358.358 0 0 1 .323.205l5.525 12.121a.386.386 0 0 1-.027.379.4.4 0 0 1-.34.18Zm15.032-10.808a.22.22 0 0 1-.066.157.23.23 0 0 1-.16.065l-7.766.01a.173.173 0 0 0-.121.049.166.166 0 0 0-.05.118v2.662a.163.163 0 0 0 .105.153.165.165 0 0 0 .066.012H59.7a.232.232 0 0 1 .161.066.22.22 0 0 1 .066.159v1.848a.218.218 0 0 1-.066.159.228.228 0 0 1-.16.065h-6.005a.176.176 0 0 0-.12.05.169.169 0 0 0-.052.118v2.66a.163.163 0 0 0 .104.154.16.16 0 0 0 .065.013h7.769a.231.231 0 0 1 .16.066.223.223 0 0 1 .066.158v1.842a.22.22 0 0 1-.066.156.23.23 0 0 1-.16.065H51.346a.23.23 0 0 1-.16-.065.22.22 0 0 1-.066-.156V27.814a.217.217 0 0 1 .065-.158.227.227 0 0 1 .161-.066H61.46a.231.231 0 0 1 .162.066.222.222 0 0 1 .065.158v1.849ZM78.931 40.47H65.304a.41.41 0 0 1-.34-.179.39.39 0 0 1-.03-.376l5.52-12.126a.358.358 0 0 1 .323-.205h2.676a.353.353 0 0 1 .32.205l5.528 12.121a.386.386 0 0 1-.027.38.401.401 0 0 1-.343.18Zm17.565 0h-13.63a.41.41 0 0 1-.337-.18.389.389 0 0 1-.03-.375l5.52-12.126a.356.356 0 0 1 .32-.205h2.68a.353.353 0 0 1 .32.205l5.525 12.121a.387.387 0 0 1-.174.512.412.412 0 0 1-.194.048Zm14.95 0h-1.948a.235.235 0 0 1-.162-.064.235.235 0 0 1-.05-.072.228.228 0 0 1-.017-.086v-4.88a.175.175 0 0 0-.012-.064.173.173 0 0 0-.092-.091.173.173 0 0 0-.065-.013h-5.992a.177.177 0 0 0-.121.05.165.165 0 0 0-.05.118v4.878a.218.218 0 0 1-.067.156.228.228 0 0 1-.16.065h-1.951a.23.23 0 0 1-.16-.065.221.221 0 0 1-.066-.156V27.814a.22.22 0 0 1 .066-.157.23.23 0 0 1 .16-.067h1.946c.06 0 .118.024.161.066a.225.225 0 0 1 .068.158v4.876a.172.172 0 0 0 .171.168h5.992a.171.171 0 0 0 .121-.05.17.17 0 0 0 .048-.118v-4.876a.22.22 0 0 1 .067-.158.233.233 0 0 1 .162-.066h1.946a.23.23 0 0 1 .16.067.22.22 0 0 1 .066.157v12.44a.22.22 0 0 1-.064.155.23.23 0 0 1-.157.067v-.005Zm15.95-10.813a.218.218 0 0 1-.067.157.228.228 0 0 1-.16.065h-7.771a.173.173 0 0 0-.121.049.166.166 0 0 0-.05.118v2.662c0 .022.004.044.013.064a.17.17 0 0 0 .158.101h6.005a.23.23 0 0 1 .161.066.22.22 0 0 1 .065.159v1.848a.21.21 0 0 1-.065.159.224.224 0 0 1-.161.066h-6.002a.176.176 0 0 0-.121.05.17.17 0 0 0-.051.117V38c0 .022.004.043.012.064a.172.172 0 0 0 .157.103h7.768a.236.236 0 0 1 .162.066.24.24 0 0 1 .049.073.21.21 0 0 1 .016.086v1.856a.221.221 0 0 1-.066.156.23.23 0 0 1-.161.065h-10.114a.228.228 0 0 1-.16-.065.218.218 0 0 1-.067-.156V27.814a.229.229 0 0 1 .066-.158.223.223 0 0 1 .161-.066h10.114a.236.236 0 0 1 .162.066c.021.02.037.046.049.073a.21.21 0 0 1 .016.085l.003 1.844Z" fill="#FCFCFC"/></svg>