<svg width="160" height="69" viewBox="0 0 160 69" fill="none" xmlns="http://www.w3.org/2000/svg"><path d="M102.551 32.153h-2.27a.26.26 0 0 0-.244.168.284.284 0 0 0-.019.104v5.935a.207.207 0 0 1-.061.143.201.201 0 0 1-.142.059h-6.998a.201.201 0 0 1-.14-.06.21.21 0 0 1-.059-.142v-5.935a.276.276 0 0 0-.078-.193.265.265 0 0 0-.19-.08h-2.27a.265.265 0 0 0-.19.08.276.276 0 0 0-.078.193v15.137a.272.272 0 0 0 .08.191.262.262 0 0 0 .188.076h2.276c.07 0 .137-.028.187-.078a.275.275 0 0 0 .08-.189v-5.935c0-.053.022-.105.059-.142a.196.196 0 0 1 .14-.06h6.998a.209.209 0 0 1 .204.202v5.94a.267.267 0 0 0 .262.268h2.276a.257.257 0 0 0 .189-.077.258.258 0 0 0 .058-.087.264.264 0 0 0 .021-.103V32.43a.288.288 0 0 0-.02-.109.266.266 0 0 0-.259-.17ZM86.56 28.272v-2.275a.275.275 0 0 0-.077-.19.265.265 0 0 0-.186-.082H74.479a.265.265 0 0 0-.186.081.275.275 0 0 0-.076.191v15.137a.27.27 0 0 0 .262.273h11.818a.266.266 0 0 0 .186-.082.275.275 0 0 0 .076-.19v-2.248a.272.272 0 0 0-.16-.252.256.256 0 0 0-.102-.02H77.22a.196.196 0 0 1-.14-.06.203.203 0 0 1-.058-.143v-3.234a.21.21 0 0 1 .057-.145.202.202 0 0 1 .14-.063h7.015a.26.26 0 0 0 .186-.078.27.27 0 0 0 .077-.189V32.45a.276.276 0 0 0-.077-.19.265.265 0 0 0-.186-.082H77.22a.188.188 0 0 1-.142-.058.198.198 0 0 1-.056-.144v-3.251a.21.21 0 0 1 .061-.143.202.202 0 0 1 .142-.06h9.076a.26.26 0 0 0 .177-.073.27.27 0 0 0 .08-.177Zm-22.154-8.93h-3.127a.402.402 0 0 0-.375.245l-6.431 14.755a.489.489 0 0 0 .204.618.464.464 0 0 0 .224.059h15.904a.465.465 0 0 0 .394-.22.487.487 0 0 0 .034-.457L64.78 19.615a.402.402 0 0 0-.375-.273Zm-5.89 12.682 4.176-9.54a.18.18 0 0 1 .332 0l4.177 9.54a.217.217 0 0 1-.09.267.205.205 0 0 1-.098.028h-8.326a.205.205 0 0 1-.17-.097.216.216 0 0 1-.017-.198h.016Z" fill="#FCFCFC"/><path d="M94.726 5.902a31.223 31.223 0 0 1 9.501 7.708 31.897 31.897 0 0 1 5.881 10.827 32.27 32.27 0 0 1 1.364 12.295 32.14 32.14 0 0 1-3.36 11.89c-3.785 7.473-10.33 13.108-18.193 15.665A30.61 30.61 0 0 1 66.18 62.26l-1.07 2.083a32.962 32.962 0 0 0 12.539 3.68 32.846 32.846 0 0 0 12.967-1.49 33.246 33.246 0 0 0 11.418-6.436 33.942 33.942 0 0 0 8.129-10.4 34.64 34.64 0 0 0 2.138-25.975c-2.696-8.604-8.636-15.766-16.515-19.91l-1.06 2.09Z" fill="#FCFCFC"/><path d="M66.174 62.258c-7.335-3.86-12.866-10.528-15.376-18.54a32.261 32.261 0 0 1 1.99-24.186 31.607 31.607 0 0 1 7.565-9.678 30.956 30.956 0 0 1 10.627-5.99 30.578 30.578 0 0 1 12.068-1.39 30.686 30.686 0 0 1 11.672 3.42l1.07-2.089A32.958 32.958 0 0 0 83.249.121a32.84 32.84 0 0 0-12.972 1.49 33.247 33.247 0 0 0-11.422 6.44 33.945 33.945 0 0 0-8.128 10.406 34.535 34.535 0 0 0-3.608 12.77 34.654 34.654 0 0 0 1.464 13.205 34.243 34.243 0 0 0 6.314 11.629 33.543 33.543 0 0 0 10.202 8.281l1.076-2.084Z" fill="#FCFCFC"/></svg>