<svg width="160" height="68" viewBox="0 0 160 68" fill="none" xmlns="http://www.w3.org/2000/svg"><path d="M78.308 41.538c-4.336 0-7.638-2.86-7.638-7.506 0-4.851 3.352-7.532 7.713-7.532 4.361 0 7.688 2.808 7.688 7.455.026 4.877-3.327 7.583-7.763 7.583Zm-.05-12.638c-2.799 0-4.387 2.068-4.387 5.055 0 3.268 1.765 5.209 4.512 5.209 2.798 0 4.462-2.35 4.462-5.107.025-3.064-1.639-5.157-4.588-5.157Zm16.283 12.638c-1.865 0-3.806-.51-5.343-1.48l.831-2.12c1.462.868 3.126 1.404 4.513 1.404 1.688 0 2.873-.689 2.873-1.838 0-1.225-1.386-1.838-3.403-2.579-3.176-1.149-4.562-2.298-4.562-4.519 0-2.45 2.293-3.906 5.041-3.906 1.765 0 3.403.383 4.815 1.174l-.857 2.196c-1.336-.766-2.622-1.2-4.008-1.2-1.387 0-2.37.74-2.37 1.557 0 1.124 1.361 1.737 3.227 2.451 2.57.97 4.663 2.069 4.663 4.698 0 2.937-2.596 4.162-5.42 4.162Zm17.999-6.689h-7.411c.252 3.09 1.865 4.442 3.831 4.442 1.235 0 2.496-.46 3.529-1.174l1.134 1.787c-1.26 1.047-2.772 1.66-4.865 1.66-3.453 0-6.251-2.732-6.251-7.507 0-4.62 2.596-7.532 6.302-7.532 3.529 0 5.545 2.503 5.949 5.796.252 1.915-1.009 2.528-2.218 2.528Zm-3.908-6.051c-2.016 0-3.251 1.736-3.503 3.932h7.158c-.151-2.043-1.134-3.932-3.655-3.932Zm16.234 11.132c-.378 1.072-.933 1.633-1.992 1.633-1.008 0-1.563-.561-1.941-1.634l-4.638-13.123h2.748l3.907 11.54 3.806-11.54h2.647l-4.537 13.123Zm16.132-5.081h-7.41c.252 3.09 1.865 4.443 3.831 4.468 1.235 0 2.496-.46 3.529-1.174l1.134 1.787c-1.235 1.047-2.772 1.66-4.865 1.66-3.453 0-6.251-2.733-6.251-7.507 0-4.621 2.596-7.532 6.302-7.532 3.529 0 5.545 2.502 5.949 5.796.252 1.89-1.009 2.502-2.219 2.502Zm-3.907-6.051c-2.016 0-3.251 1.736-3.503 3.932h7.158c-.176-2.043-1.134-3.932-3.655-3.932Zm18.2 4.825c0-4.417-3.226-4.8-6.579-4.315v11.924h-2.647V29.079c0-1.328.277-2.069 1.891-2.273 5.016-.638 10.032.128 10.032 6.894v7.532h-2.722l.025-7.609ZM35.531 12.815a.736.736 0 0 1-.731-.74v-4.29c0-.408.328-.74.731-.74.403 0 .731.332.731.74v4.29c0 .408-.328.74-.731.74Zm0 48.102a.736.736 0 0 1-.731-.74v-4.29c0-.408.328-.74.731-.74.403 0 .731.332.731.74v4.29c0 .408-.328.74-.731.74ZM13.903 34.722H9.668a.736.736 0 0 1-.73-.74c0-.41.327-.741.73-.741h4.235c.403 0 .731.332.731.74 0 .409-.328.74-.731.74Zm47.969 0H57.16a.736.736 0 0 1-.731-.74c0-.41.327-.741.73-.741h4.714c.404 0 .731.332.731.74 0 .409-.327.74-.73.74Zm-51.826 4.545a.756.756 0 0 1-.73-.613.75.75 0 0 1 .604-.868l4.16-.74c.403-.077.78.204.857.612a.75.75 0 0 1-.605.868l-4.16.74h-.126Zm46.784-8.349a.756.756 0 0 1-.73-.613.752.752 0 0 1 .58-.868l4.159-.74c.403-.077.781.204.857.612a.75.75 0 0 1-.605.868l-4.16.74h-.1ZM11.206 43.684a.704.704 0 0 1-.68-.485c-.127-.383.05-.817.428-.945l3.983-1.481c.378-.128.806.051.932.434s-.05.817-.428.945l-3.983 1.455a.422.422 0 0 1-.252.077Zm44.642-16.469a.704.704 0 0 1-.68-.486c-.126-.383.05-.817.428-.944l3.983-1.456c.378-.127.807.052.933.434a.72.72 0 0 1-.429.945L56.1 27.164c-.075.05-.15.05-.252.05Zm-1.588-3.447a.717.717 0 0 1-.63-.358.757.757 0 0 1 .277-1.021l3.68-2.145a.737.737 0 0 1 1.009.281.757.757 0 0 1-.278 1.021l-3.655 2.145c-.151.026-.277.077-.403.077Zm-2.168-3.14a.711.711 0 0 1-.555-.256c-.252-.306-.227-.791.1-1.046l3.253-2.758c.302-.255.781-.23 1.033.102.252.307.227.792-.1 1.047l-3.252 2.758a.77.77 0 0 1-.48.153Zm-2.647-2.707a.702.702 0 0 1-.479-.178.766.766 0 0 1-.1-1.047l2.721-3.294a.743.743 0 0 1 1.034-.102.74.74 0 0 1 .076 1.047l-2.723 3.293a.594.594 0 0 1-.53.281ZM22.6 57.42a.757.757 0 0 1-.655-1.123l2.117-3.703a.737.737 0 0 1 1.008-.28.757.757 0 0 1 .278 1.02l-2.118 3.728a.774.774 0 0 1-.63.358Zm23.745-41.67a.757.757 0 0 1-.655-1.123l2.117-3.702a.737.737 0 0 1 1.008-.28.757.757 0 0 1 .277 1.02l-2.117 3.703a.741.741 0 0 1-.63.383ZM26.683 59.334a.886.886 0 0 1-.252-.05.72.72 0 0 1-.429-.945l1.437-4.034a.706.706 0 0 1 .933-.434c.378.127.58.561.454.944l-1.437 4.034a.76.76 0 0 1-.706.486Zm16.233-45.217a.883.883 0 0 1-.252-.051.72.72 0 0 1-.428-.945l1.437-4.034a.706.706 0 0 1 .932-.434c.378.153.58.562.429.945l-1.412 4.034a.76.76 0 0 1-.706.485ZM31.044 60.509h-.126c-.403-.077-.655-.46-.605-.868l.731-4.213a.761.761 0 0 1 .857-.613c.403.077.655.46.605.868l-.73 4.213a.756.756 0 0 1-.732.613Zm8.242-47.361h-.126c-.403-.077-.655-.46-.605-.869l.731-4.212a.761.761 0 0 1 .857-.613c.404.076.656.46.605.868l-.73 4.213a.756.756 0 0 1-.732.613Zm.732 47.361a.756.756 0 0 1-.731-.613l-.731-4.213a.75.75 0 0 1 .605-.868c.403-.077.781.204.857.613l.73 4.213a.75.75 0 0 1-.604.868h-.126Zm-8.243-47.362a.756.756 0 0 1-.73-.613l-.732-4.212a.75.75 0 0 1 .605-.868c.404-.077.782.204.857.612l.731 4.213a.75.75 0 0 1-.605.868c-.05-.025-.075 0-.126 0Zm12.604 46.187a.704.704 0 0 1-.68-.485l-1.438-4.034c-.126-.383.05-.817.429-.944a.706.706 0 0 1 .933.434l1.436 4.034c.126.383-.05.817-.428.944-.101.051-.177.051-.252.051ZM28.12 14.118a.704.704 0 0 1-.681-.485l-1.437-4.034a.72.72 0 0 1 .429-.945c.378-.128.806.051.932.434l1.437 4.034a.72.72 0 0 1-.428.945c-.076.05-.152.05-.253.05ZM48.462 57.42a.692.692 0 0 1-.63-.383l-2.117-3.728a.757.757 0 0 1 .277-1.021.737.737 0 0 1 1.008.28l2.118 3.703a.757.757 0 0 1-.278 1.021.743.743 0 0 1-.378.128ZM24.717 15.752a.692.692 0 0 1-.63-.383l-2.118-3.727a.757.757 0 0 1 .277-1.022.737.737 0 0 1 1.009.281l2.117 3.728a.757.757 0 0 1-.277 1.021c-.126.051-.252.102-.378.102ZM52.168 54.79a.805.805 0 0 1-.555-.255l-2.722-3.294c-.252-.306-.227-.791.1-1.047.303-.255.782-.23 1.034.102l2.723 3.294c.252.306.226.791-.076 1.047a1.035 1.035 0 0 1-.504.153Zm3.176-3.218a.702.702 0 0 1-.48-.178l-3.251-2.758a.766.766 0 0 1-.1-1.047.743.743 0 0 1 1.033-.102l3.252 2.758c.302.255.352.74.1 1.047a.74.74 0 0 1-.554.28Zm2.596-3.752a.573.573 0 0 1-.353-.103l-3.68-2.144a.757.757 0 0 1-.277-1.022.737.737 0 0 1 1.008-.28l3.68 2.144a.757.757 0 0 1 .278 1.022c-.177.255-.404.383-.656.383Zm1.891-4.137a.886.886 0 0 1-.252-.051l-3.983-1.456a.72.72 0 0 1-.428-.944.707.707 0 0 1 .932-.434l3.983 1.455a.72.72 0 0 1 .429.945.739.739 0 0 1-.681.485ZM15.188 27.215a.888.888 0 0 1-.252-.05l-3.982-1.456c-.379-.153-.58-.562-.429-.945a.706.706 0 0 1 .933-.434l3.982 1.455c.379.154.58.562.429.945a.704.704 0 0 1-.68.485Zm45.828 12.052h-.127l-4.184-.74c-.403-.077-.655-.46-.605-.869a.761.761 0 0 1 .857-.612l4.16.74c.403.077.655.46.604.868a.73.73 0 0 1-.705.613Zm-46.785-8.349h-.126l-4.184-.74c-.404-.077-.656-.46-.605-.869a.761.761 0 0 1 .857-.613l4.184.741c.403.077.655.46.605.868a.777.777 0 0 1-.73.613Zm7.385-12.996a.76.76 0 0 1-.554-.256l-2.723-3.293c-.252-.307-.226-.792.101-1.047.303-.256.782-.23 1.034.102l2.722 3.294c.252.306.227.791-.075 1.046a.963.963 0 0 1-.505.154Zm-2.671 2.705a.702.702 0 0 1-.48-.178L15.24 17.69a.766.766 0 0 1-.1-1.047.743.743 0 0 1 1.033-.102l3.252 2.758c.302.255.352.74.1 1.046a.678.678 0 0 1-.58.281Zm-2.143 3.141a.573.573 0 0 1-.353-.102l-3.68-2.145a.757.757 0 0 1-.278-1.021.737.737 0 0 1 1.009-.281l3.655 2.144a.757.757 0 0 1 .277 1.022c-.151.23-.378.383-.63.383Z" fill="#FCFCFC"/><path d="M22.02 20.27a19.31 19.31 0 0 0-4.714 7.66l13.083 7.072-27.4 18.996a38.627 38.627 0 0 0 5.419 7.047l39.046-26.987L22.02 20.27Z" fill="#FCFCFC"/></svg>