<svg width="161" height="68" viewBox="0 0 161 68" fill="none" xmlns="http://www.w3.org/2000/svg"><path fill-rule="evenodd" clip-rule="evenodd" d="M34.099 17.053H.373v33.726h33.726V17.053ZM29.597 34.02c0 8.798-5.027 12.36-12.359 12.36s-12.36-3.562-12.36-12.36 5.028-12.359 12.36-12.359 12.36 3.561 12.36 12.36ZM17.234 44.497c-6.704 0-10.474-3.038-10.474-10.474 0-7.437 3.77-10.474 10.474-10.474 6.703 0 10.474 3.037 10.474 10.474 0 7.436-3.771 10.474-10.474 10.474Zm-5.027-18.75v3.561H8.855c-.314.943-.524 2.933-.628 3.98h3.875v9.008c.838.314 2.933.628 3.875.628v-6.913l5.866 6.075c.628-.21 2.723-1.99 3.037-2.618l-5.865-6.285h7.017c0-1.257-.314-3.037-.628-3.98h-9.427v-4.19c-.096.017-.243.04-.424.069h-.002c-1.01.16-3.078.487-3.344.665Zm29.955 13.726 5.866-11.207h1.57l5.657 11.207H53.16l-1.571-3.038h-5.866l-1.57 3.038h-1.99Zm8.798-4.504-2.304-4.504-2.2 4.504h4.504Zm5.76-6.703v11.207h7.647v-1.571H58.71v-9.636h-1.99Zm9.004 11.207V28.266h6.18c1.676 0 3.666.838 3.666 3.351 0 3.247-2.723 3.666-4.818 3.666H67.61v4.19h-1.886Zm7.96-7.856c0-1.047-1.047-1.78-2.094-1.78h-3.98v3.875h3.456c1.99 0 2.619-.524 2.619-2.095Zm12.469-3.351v4.503H79.24v-4.503h-1.99v11.207h1.99V34.34h6.913v5.133h1.885V28.266h-1.885Zm3.349 11.207 5.865-11.207h1.571l5.656 11.207H100.5l-1.572-3.038h-5.865l-1.571 3.038h-1.99Zm8.798-4.504-2.304-4.504-2.2 4.504H98.3Zm9.218-6.699v11.207h7.017c1.99 0 3.875-1.047 3.875-3.247 0-.104-.104-2.304-1.99-2.828.838-.314 1.362-1.152 1.362-2.409 0-1.361-.943-2.932-3.666-2.932h-6.598v.209Zm6.389 6.18c1.78 0 2.618.628 2.618 1.885 0 1.047-.838 1.676-2.304 1.676h-4.713V34.45h4.399Zm0-4.609c1.257 0 1.99.42 1.99 1.362 0 .838-.21 1.78-2.514 1.78h-3.875v-3.037l4.399-.105Zm21.365 9.632h-1.676V28.266h2.304l7.646 8.798v-8.798h1.676v11.207h-1.99l-7.96-9.322v9.322Zm21.895-11.207-6.808 5.446v-5.446h-1.99v11.207h1.99v-3.98l1.676-1.362 5.551 5.342h2.619l-6.808-6.39 5.97-4.817h-2.2ZM118.94 39.473l5.865-11.207h1.676l5.656 11.207h-2.095l-1.571-3.038h-5.97l-1.571 3.038h-1.99Zm8.902-4.504-2.304-4.504-2.199 4.504h4.503Z" fill="#FCFCFC"/></svg>