<svg width="154" height="42" viewBox="0 0 154 42" fill="none" xmlns="http://www.w3.org/2000/svg">
<path d="M76.8704 7.63112C69.7204 7.63112 64.9976 12.9221 64.9976 19.9295C64.9976 26.9835 69.7204 32.2745 76.8704 32.2745C83.9759 32.2745 88.6988 26.9835 88.6988 19.9295C88.6988 12.9221 83.9759 7.63112 76.8704 7.63112ZM76.8704 28.5678C71.9402 28.5678 69.2595 24.6973 69.2595 19.9295C69.2595 15.2082 71.9402 11.3378 76.8704 11.3378C81.7543 11.3378 84.4351 15.2082 84.4351 19.9295C84.4351 24.6955 81.7543 28.5678 76.8704 28.5678ZM2.16424 3.00479C2.16424 1.37766 3.4602 0.212234 5.06903 0.212234C6.73526 0.212234 8.05898 1.38138 8.05898 3.00479C8.05898 4.62819 6.7297 5.79734 5.06903 5.79734C3.45094 5.80293 2.16424 4.63378 2.16424 3.00479ZM11.4211 28.1564V31.7979H0V28.1564H3.77493V11.7734H0V8.10771H8.00899V29.5899H8.05898C8.15696 29.1816 8.38858 28.8183 8.71662 28.5583C9.04466 28.2983 9.45009 28.1568 9.86776 28.1564H11.4211ZM97.0947 11.2726V25.025C97.0947 27.2739 98.0426 27.9218 99.6977 27.9218H102.145V31.7979H97.0595C94.3454 31.7979 92.6718 29.8338 92.6718 26.9239V24.4907V11.2726H89.0246V7.63112H92.6662V3.09973H97.091V9.04043H97.1187C97.2227 8.6399 97.4556 8.28528 97.7812 8.03199C98.1068 7.7787 98.5067 7.641 98.9183 7.64043H103.149V11.2726H97.0947ZM145.076 0H137.804C136.632 -2.4833e-08 135.472 0.232104 134.389 0.68306C133.307 1.13402 132.323 1.79499 131.494 2.62825C130.666 3.46151 130.008 4.45073 129.56 5.53943C129.112 6.62813 128.881 7.795 128.881 8.9734C128.881 10.1518 129.112 11.3187 129.56 12.4074C130.008 13.4961 130.666 14.4853 131.494 15.3186C132.323 16.1518 133.307 16.8128 134.389 17.2637C135.472 17.7147 136.632 17.9468 137.804 17.9468H145.076C147.443 17.9468 149.713 17.0014 151.386 15.3186C153.06 13.6357 154 11.3533 154 8.9734C154 6.59351 153.06 4.31109 151.386 2.62825C149.713 0.94541 147.443 5.01525e-08 145.076 0ZM145.06 16.3923H137.821C135.864 16.3923 133.988 15.6107 132.604 14.2193C131.221 12.828 130.443 10.941 130.443 8.9734C130.443 7.00579 131.221 5.11877 132.604 3.72746C133.988 2.33615 135.864 1.55452 137.821 1.55452H145.06C147.016 1.55452 148.893 2.33615 150.277 3.72746C151.66 5.11877 152.437 7.00579 152.437 8.9734C152.437 10.941 151.66 12.828 150.277 14.2193C148.893 15.6107 147.016 16.3923 145.06 16.3923ZM144.343 6.33909C142.429 6.33909 141.165 7.68324 141.165 9.46303C141.165 11.2428 142.431 12.5944 144.345 12.5944C146.259 12.5944 147.513 11.2503 147.513 9.45745C147.513 7.66463 146.248 6.33165 144.345 6.33165L144.343 6.33909ZM144.343 11.1535C143.297 11.1535 142.729 10.3957 142.729 9.46489C142.729 8.53404 143.297 7.78936 144.343 7.78936C145.389 7.78936 145.947 8.54521 145.947 9.46489C145.947 10.3846 145.38 11.146 144.345 11.146L144.343 11.1535ZM137.715 4.87021C137.715 4.73655 137.742 4.60424 137.794 4.48129C137.846 4.35835 137.923 4.24731 138.019 4.15491C138.115 4.0625 138.229 3.99064 138.353 3.94368C138.478 3.89671 138.61 3.87561 138.743 3.88165C138.877 3.87336 139.012 3.89279 139.138 3.93872C139.264 3.98465 139.38 4.05613 139.478 4.14874C139.576 4.24134 139.654 4.35313 139.707 4.47721C139.761 4.60129 139.788 4.73503 139.788 4.87021C139.788 5.00539 139.761 5.13914 139.707 5.26322C139.654 5.3873 139.576 5.49908 139.478 5.59169C139.38 5.6843 139.264 5.75577 139.138 5.8017C139.012 5.84764 138.877 5.86706 138.743 5.85878C138.61 5.86432 138.477 5.84262 138.352 5.79498C138.228 5.74735 138.114 5.67477 138.018 5.58165C137.922 5.48852 137.846 5.37679 137.794 5.25322C137.743 5.12965 137.716 4.99682 137.717 4.86277L137.715 4.87021ZM139.578 11.2484H140.585V12.479H137.166V11.2484H138.076V7.69255H137.308V6.4508H139.58L139.578 11.2484ZM126.198 26.8495V18.2614C126.198 11.8739 122.549 7.63112 115.723 7.63112C109.691 7.63112 106.068 11.0138 105.43 16.208H109.699C110.175 12.5125 112.45 11.254 115.623 11.254C122.381 11.254 121.934 17.7699 121.934 18.859C121.934 18.859 117.691 17.567 114.203 17.567C105.157 17.567 104.885 24.6955 104.885 24.6955C104.885 24.8686 104.869 25.0418 104.869 25.2205C104.869 27.6984 105.911 32.2745 112.829 32.2745C120.79 32.2745 122.395 26.5572 122.395 26.5572V28.6516C122.395 30.5822 124.108 31.7979 125.994 31.7979H128.383V28.1564H127.074C126.361 28.1564 126.2 27.6835 126.2 26.842L126.198 26.8495ZM113.527 28.659C110.835 28.659 109.084 27.3 109.084 24.6285C109.084 24.6285 108.864 20.5104 114.759 20.3465C117.834 20.259 121.831 21.2662 121.831 21.2662C121.457 25.5128 118.315 28.6516 113.529 28.6516L113.527 28.659ZM31.3269 8.06862V11.8926C29.5274 9.26383 26.6985 7.63856 23.2142 7.63856C17.0048 7.63856 12.904 12.7266 12.904 19.4622C12.904 26.2444 17.0048 31.3324 23.2142 31.3324C26.7022 31.3324 29.5274 29.7072 31.3269 27.0691V30.6715C31.2491 34.9535 28.8331 38.3957 24.4769 38.3957C21.2259 38.3957 19.0579 36.5061 18.1193 33.788L14.4906 35.5771C16.1568 39.4513 19.7855 42 24.5824 42C31.1529 42 35.5387 37.1596 35.6332 30.6715V8.06117L31.3269 8.06862ZM24.2103 27.6165C19.6226 27.6165 17.1269 23.9582 17.1269 19.4529C17.1269 14.9941 19.6226 11.3359 24.2103 11.3359C28.7572 11.3359 31.2454 14.9941 31.2454 19.4529C31.2584 23.9601 28.7646 27.6184 24.2177 27.6184L24.2103 27.6165ZM57.694 31.7941V17.3809C57.5626 13.8436 56.4258 11.3862 52.6713 11.2596C46.9524 11.3061 44.1217 15.5415 44.1217 17.6043V31.796H39.808V8.06117H44.1291V12.6577C44.1291 12.6577 46.6099 7.63112 53.0026 7.63112C59.3954 7.63112 62.0354 11.941 62.0354 17.5447V31.796L57.694 31.7941Z" fill="#FCFCFC"/>
</svg>
