<svg width="160" height="68" viewBox="0 0 160 68" fill="none" xmlns="http://www.w3.org/2000/svg"><path d="M114.027 20.92c-6.522 0-12.97 4.607-12.97 13.564 0 8.338 5.428 13.528 12.72 13.528 7.719 0 12.971-5.653 12.971-13.528-.001-9.193-6.462-13.564-12.721-13.564Zm-.131 21.688c-3.765 0-6.544-3.136-6.544-8.124 0-4.442 2.257-8.124 6.544-8.124 4.727 0 6.545 4.36 6.545 8.124-.001 3.813-1.83 8.124-6.545 8.124ZM88.585 32.252l-.012 5.19h4.454v4.586a7.035 7.035 0 0 1-3.148.582c-4.383 0-6.9-3.195-6.9-8.124 0-4.56 1.875-7.863 7.398-7.863 1.982-.028 3.95.344 5.785 1.092l2.209-5.095c-2.15-1.057-4.585-1.686-8.376-1.686-7.637 0-13.493 5.451-13.493 13.718 0 7.34 4.3 13.35 13.017 13.35a17.16 17.16 0 0 0 9.232-2.436V32.264H88.585v-.012Zm-18.479 5.142v-.12a11.173 11.173 0 0 0 3.29-3.159 8.137 8.137 0 0 0 1.224-4.406 8.82 8.82 0 0 0-.641-3.362 6.815 6.815 0 0 0-2.01-2.838 10 10 0 0 0-3.504-1.864 17.504 17.504 0 0 0-5.227-.678c-1.544 0-2.945.071-4.18.19-1.343.12-2.258.24-3.54.44V47.55h6.084v-8.668c.748.036 1.307.036 2.114.012a4.624 4.624 0 0 1 1.795 1.568 20.343 20.343 0 0 1 3.504 7.09h7.21c-1.594-4.586-3.233-8.838-6.12-10.157Zm-2.924-4.395a6.144 6.144 0 0 1-3.67 1.07c-.689 0-1.52-.036-1.937-.084v-7.47c.285-.047 1.176-.13 1.509-.143.344-.012.903-.012 1.045-.012a5.175 5.175 0 0 1 3.183.95 3.05 3.05 0 0 1 1.176 2.566A3.765 3.765 0 0 1 67.182 33ZM42.61 42.014c-1.353 0-2.386-.748-2.386-2.506v-2.803H50.2l-.013-5.297h-9.964v-4.49h11.782v-5.582H34.154v20.002c0 4.11 1.604 6.211 6.163 6.211h12.188l-.012-5.547c0 .012-7.138.012-9.882.012Z" fill="#FCFCFC"/></svg>